<?xml version="1.0" standalone="no"?>
<!DOCTYPE svg PUBLIC "-//W3C//DTD SVG 20010904//EN"
 "http://www.w3.org/TR/2001/REC-SVG-20010904/DTD/svg10.dtd">
<svg version="1.0" xmlns="http://www.w3.org/2000/svg"
 width="512.000000pt" height="512.000000pt" viewBox="0 0 512.000000 512.000000"
 preserveAspectRatio="xMidYMid meet">

<g transform="translate(0.000000,512.000000) scale(0.100000,-0.100000)"
fill="#000000" stroke="none">
<path d="M2665 4775 c-14 -13 -25 -34 -25 -47 0 -13 56 -192 125 -398 131
-393 139 -410 195 -410 56 0 64 17 195 410 69 206 125 385 125 398 0 13 -11
34 -25 47 l-24 25 -271 0 -271 0 -24 -25z m362 -320 c-34 -102 -64 -185 -67
-185 -3 0 -33 83 -67 185 l-61 185 128 0 128 0 -61 -185z"/>
<path d="M1915 4507 c-171 -104 -222 -139 -229 -160 -21 -59 -11 -67 349 -293
228 -143 349 -213 368 -214 34 0 77 40 77 71 0 40 -249 693 -272 712 -11 9
-32 17 -47 17 -15 -1 -115 -55 -246 -133z m266 -230 c31 -84 56 -153 54 -155
-4 -4 -310 187 -312 196 -3 9 190 123 196 116 3 -3 31 -73 62 -157z"/>
<path d="M3712 4623 c-23 -19 -272 -672 -272 -712 0 -31 43 -71 76 -71 32 0
699 412 714 441 15 27 12 62 -8 85 -26 32 -437 274 -465 274 -14 0 -34 -8 -45
-17z m225 -262 c35 -20 63 -39 63 -42 0 -7 -311 -202 -315 -197 -2 2 21 68 51
148 30 80 56 151 59 158 4 11 13 9 43 -8 20 -12 65 -39 99 -59z"/>
<path d="M105 4375 c-25 -24 -25 -26 -25 -215 0 -189 0 -191 25 -215 l24 -25
351 0 351 0 24 -25 25 -24 0 -1243 0 -1243 -46 -25 c-59 -31 -153 -123 -190
-185 -134 -229 -101 -507 82 -689 181 -182 460 -216 687 -83 59 35 158 136
188 192 l24 45 1175 0 1175 0 24 -45 c55 -104 185 -205 321 -251 76 -26 244
-26 320 0 157 53 273 152 339 289 86 178 78 370 -23 542 -66 112 -211 216
-343 247 l-53 13 0 802 0 803 55 0 c46 0 60 4 80 25 25 24 25 26 25 215 0 189
0 191 -25 215 l-24 25 -1656 0 -1655 0 0 219 c0 120 -5 242 -10 272 -25 131
-124 266 -239 328 -110 58 -135 61 -579 61 l-403 0 -24 -25z m905 -163 c72
-35 114 -75 151 -144 l34 -63 3 -1285 2 -1285 -80 0 -80 0 0 1219 c0 928 -3
1229 -12 1260 -16 55 -99 138 -154 154 -28 8 -134 12 -338 12 l-296 0 0 81 0
80 363 -3 c353 -3 363 -4 407 -26z m3550 -932 l0 -80 -1600 0 -1600 0 0 80 0
80 1600 0 1600 0 0 -80z m-160 -1043 l0 -803 -68 -17 c-128 -33 -277 -146
-333 -252 l-24 -45 -1175 0 -1175 0 -30 50 c-38 65 -120 147 -185 185 l-50 30
0 828 0 827 1520 0 1520 0 0 -803z m-3116 -995 c91 -42 149 -100 194 -190 35
-72 37 -81 37 -172 0 -91 -2 -100 -37 -172 -45 -91 -103 -147 -196 -191 -61
-29 -76 -32 -162 -32 -86 0 -101 3 -162 32 -93 44 -151 100 -196 191 -35 72
-37 81 -37 171 0 87 3 102 32 163 40 85 97 147 172 186 78 42 122 52 213 48
61 -3 92 -11 142 -34z m3360 0 c91 -42 149 -100 194 -190 35 -72 37 -81 37
-172 0 -91 -2 -100 -37 -172 -45 -91 -103 -147 -196 -191 -61 -29 -76 -32
-162 -32 -86 0 -101 3 -162 32 -93 44 -151 100 -196 191 -35 72 -37 81 -37
171 0 87 3 102 32 163 40 85 97 147 172 186 78 42 122 52 213 48 61 -3 92 -11
142 -34z m-719 -362 l0 -80 -1125 0 -1125 0 0 80 0 80 1125 0 1125 0 0 -80z"/>
<path d="M1840 2867 c-49 -16 -133 -102 -148 -153 -17 -59 -17 -1209 0 -1268
16 -55 99 -138 154 -154 96 -28 182 -4 247 68 24 26 49 66 55 88 17 56 17
1208 0 1264 -17 59 -88 133 -145 152 -53 18 -112 19 -163 3z m135 -172 l25
-24 0 -591 0 -591 -25 -24 c-15 -16 -36 -25 -55 -25 -19 0 -40 9 -55 25 l-25
24 0 591 0 591 25 24 c15 16 36 25 55 25 19 0 40 -9 55 -25z"/>
<path d="M2480 2867 c-49 -16 -133 -102 -148 -153 -17 -59 -17 -1209 0 -1268
16 -55 99 -138 154 -154 96 -28 182 -4 247 68 24 26 49 66 55 88 17 56 17
1208 0 1264 -17 59 -88 133 -145 152 -53 18 -112 19 -163 3z m135 -172 l25
-24 0 -591 0 -591 -25 -24 c-15 -16 -36 -25 -55 -25 -19 0 -40 9 -55 25 l-25
24 0 591 0 591 25 24 c15 16 36 25 55 25 19 0 40 -9 55 -25z"/>
<path d="M3120 2867 c-49 -16 -133 -102 -148 -153 -17 -59 -17 -1209 0 -1268
16 -55 99 -138 154 -154 96 -28 182 -4 247 68 24 26 49 66 55 88 17 56 17
1208 0 1264 -17 59 -88 133 -145 152 -53 18 -112 19 -163 3z m135 -172 l25
-24 0 -591 0 -591 -25 -24 c-15 -16 -36 -25 -55 -25 -19 0 -40 9 -55 25 l-25
24 0 591 0 591 25 24 c15 16 36 25 55 25 19 0 40 -9 55 -25z"/>
<path d="M3760 2867 c-49 -16 -133 -102 -148 -153 -17 -59 -17 -1209 0 -1268
16 -55 99 -138 154 -154 96 -28 182 -4 247 68 24 26 49 66 55 88 17 56 17
1208 0 1264 -17 59 -88 133 -145 152 -53 18 -112 19 -163 3z m135 -172 l25
-24 0 -591 0 -591 -25 -24 c-15 -16 -36 -25 -55 -25 -19 0 -40 9 -55 25 l-25
24 0 591 0 591 25 24 c15 16 36 25 55 25 19 0 40 -9 55 -25z"/>
<path d="M1040 1107 c-49 -16 -133 -102 -148 -153 -28 -94 -8 -169 63 -239
101 -102 229 -102 330 0 98 97 101 222 8 325 -65 72 -158 97 -253 67z m135
-172 c16 -15 25 -36 25 -55 0 -19 -9 -40 -25 -55 -15 -16 -36 -25 -55 -25 -19
0 -40 9 -55 25 -16 15 -25 36 -25 55 0 19 9 40 25 55 15 16 36 25 55 25 19 0
40 -9 55 -25z"/>
<path d="M4400 1107 c-49 -16 -133 -102 -148 -153 -28 -94 -8 -169 63 -239
101 -102 229 -102 330 0 98 97 101 222 8 325 -65 72 -158 97 -253 67z m135
-172 c50 -49 15 -135 -55 -135 -41 0 -80 39 -80 80 0 41 39 80 80 80 19 0 40
-9 55 -25z"/>
</g>
</svg>
